<svg xmlns="http://www.w3.org/2000/svg" width="1923.9" height="430.832" viewBox="0 0 1923.9 430.832">
  <g id="logo" transform="translate(-0.5 430.751)">
    <path id="Path_46" data-name="Path 46" d="M229.5-429.7c-6.6,2.2-10.6,4.7-16.2,9.9-5.2,5-9.3,11-10.8,15.7-.8,2.7-188.9,328-194,335.6C1.6-58.3.5-54.7.5-42c0,10.9.2,11.8,3.2,18.1,4,8.1,12.9,16.9,21,20.7C30-.7,31.5-.5,42.5-.5c11.6,0,12.3-.1,18.6-3.2a43.906,43.906,0,0,0,11-8q4.35-4.8,87.3-148.1c82.6-142.7,83-143.3,84.4-140.5,6,11.4,161,282.6,163.1,285.3,4.2,5.3,12.8,10.8,20.4,13.2a42.085,42.085,0,0,0,50.5-22.1c3.6-7.3,3.7-7.7,3.7-19,0-11-.2-11.9-3.1-17.6-1.7-3.3-22.1-39.3-45.3-80C347.7-289.8,284.2-401.7,281-407.9a43.336,43.336,0,0,0-19.7-19.3c-6.2-3-7.6-3.3-17.3-3.5C237.4-430.9,232-430.5,229.5-429.7Z" fill="#bd0000"/>
    <path id="Path_47" data-name="Path 47" d="M592.2-200c-1.1,2.5-15.8,35.1-32.7,72.5s-30.9,68.8-31.2,69.7c-.5,1.7.5,1.8,12.3,1.8h12.9l6.9-15.8c3.8-8.6,7.4-16.3,7.9-17,.8-.9,6.8-1.2,26.6-1,24.8.3,25.6.4,26.6,2.4.5,1.2,3.9,8.7,7.5,16.7l6.5,14.6,13.2.1h13.2l-2.8-6.3C647.2-88.7,595.6-201.8,595-203,594.3-204.1,593.7-203.4,592.2-200Zm7.5,65.5c1.7,3.8,4.7,10.5,6.7,14.7l3.5,7.8H579l1.4-3.3c.8-1.7,3.8-8.4,6.6-14.7,2.9-6.3,5.6-12.6,6.1-13.9l1-2.5,1.2,2.5C596-142.6,598-138.4,599.7-134.5Z"/>
    <path id="Path_48" data-name="Path 48" d="M1333.5-197.6c-5.9,2.7-11.9,9-14.8,15.5-1.8,3.9-2.2,6.9-2.5,19.3l-.4,14.8H1300v23h16v69h24v-69h24v-23h-24v-9.8c0-10.2,1.1-16,3.2-17.4,2.9-1.8,8.5-.8,14.2,2.7,3.2,1.9,6,3.5,6.2,3.5s.4-5.9.4-13.1v-13l-5.5-2.5C1350.9-200.9,1340.6-200.9,1333.5-197.6Z" fill="#bd0000"/>
    <path id="Path_49" data-name="Path 49" d="M1125-197.4a41.726,41.726,0,0,0-26.3,21.3c-2.8,5.7-3.2,7.5-3.2,14.6s.4,8.8,3.4,14.8a48.716,48.716,0,0,0,8.9,12.4c5.5,5.4,9.4,7.5,33.3,18.6,12.1,5.5,18.3,13,18.2,22-.2,12.5-13.8,19.9-28.5,15.5-5.5-1.6-12.8-8.5-16.6-15.7l-3.2-5.9-6.8,1.9c-3.7,1.1-8.7,2.4-11.2,3.1-2.5.6-4.9,1.4-5.3,1.8-1.3,1.1,5.3,14.6,10.4,21.3,18,24,53.8,27.7,73.9,7.6,15.5-15.5,17.1-37.9,4-56.2-5.7-7.9-14.1-13.7-32.5-22.6S1121-155.1,1121-161c0-8.2,9.9-14,21.7-12.6,6.7.8,9.4,2.2,15.7,8,2.9,2.7,5.4,4.2,6.1,3.8,4.3-2.6,17.5-13.9,17.5-15.1,0-2.5-11.5-12.6-18.2-15.8C1151.5-198.8,1136.8-200.6,1125-197.4Z" fill="#bd0000"/>
    <path id="Path_50" data-name="Path 50" d="M909.3-187.5c-7,4.3-10.1,13.4-6.9,20.8A17.12,17.12,0,0,0,926-158c11.4-5.8,12.3-21.5,1.8-29.3-1.8-1.4-4.8-2.2-8.5-2.4C914.4-190,912.8-189.7,909.3-187.5Z"/>
    <path id="Path_51" data-name="Path 51" d="M1383-160.5V-148h-15v23h15v69h24v-69h18v-23h-18v-25h-24Z" fill="#bd0000"/>
    <path id="Path_52" data-name="Path 52" d="M1490.6-142.3c-3.2,7.6-8.5,20.2-11.8,28.1l-6,14.3-7.7-15.8c-4.3-8.7-9.4-19.5-11.6-24.1l-3.8-8.2h-11.4c-6.2,0-11.3.3-11.3.7,0,.5,3.3,7.5,7.3,15.8,4,8.2,14.5,30,23.2,48.2C1466.3-65,1473.7-50,1474-50s5.4-11.8,11.4-26.1,11.3-25.6,11.7-25.2,5.6,12.4,11.5,26.6,11,25.4,11.4,25,6.5-13,13.5-27.8c7.1-14.9,17.1-35.8,22.3-46.5,5.1-10.7,9.8-20.5,10.3-21.8l.9-2.3-11.6.3-11.5.3-11.4,23.9c-9.2,19.4-11.5,23.5-12.3,22-.5-1.1-5.8-13.4-11.7-27.4s-11-25.9-11.4-26.3C1496.6-155.7,1493.7-149.9,1490.6-142.3Z" fill="#bd0000"/>
    <path id="Path_53" data-name="Path 53" d="M711.5-148a52.1,52.1,0,0,0-10.2,6l-5.3,4v-10H671l.2,66.2.3,66.3,12.3.3,12.2.3V-66.4l3.3,3.1c1.7,1.8,6,4.5,9.5,6.1,15.4,7.3,32.4,4.2,45-8.1,9.4-9.2,13.5-17.2,15.3-30.2,2.9-20.9-7.8-41.8-26-50.8-5.9-2.9-7.5-3.2-16.6-3.4C718.5-149.9,715.5-149.6,711.5-148ZM728-124.9c9.9,4.5,15.4,12.6,15.3,22.9,0,7.4-2.1,12.5-7.4,17.8-4.5,4.6-8.3,6.3-14.8,6.9-8.5.8-13.6-1-19.5-7-5.6-5.6-8.1-11.8-7.8-19.1C694.4-120,713-131.7,728-124.9Z"/>
    <path id="Path_54" data-name="Path 54" d="M828.9-147.7c-5.9,2.5-10.7,5.5-12.9,8.2-2.2,2.6-3,1.7-3-3.5v-5H789V-14.9l12.3-.3,12.2-.3.3-24.8.2-24.8,4.8,3.5c8.2,5.9,14.4,8,24.8,8,8.5,0,9.6-.2,16.6-3.6A49.287,49.287,0,0,0,886.8-95c2.2-17.8-3.1-32.6-15.7-44.3-8.1-7.6-14.6-10.1-26.6-10.5C835.9-150,833.7-149.7,828.9-147.7Zm17.6,23.1c5.5,2.5,11,8.1,13.1,13.2,2,4.8,1.7,15.1-.5,19.9-2.4,5.2-9.9,12.1-14.7,13.4a30.621,30.621,0,0,1-15.9,0c-6-1.7-13.9-10-15.9-16.8-2.1-7-2-8.9.4-15.4C818.1-123.9,833.7-130.6,846.5-124.6Z"/>
    <path id="Path_55" data-name="Path 55" d="M976.9-147.7c-28.4,9.7-41.7,44.5-26.6,69.5,4.3,7.2,15.2,17.3,22.1,20.6a54.289,54.289,0,0,0,13.4,3.8c9.4,1.4,19.8-.4,29.8-5.1l6.4-3V-76.5c0-15.8.3-15.2-5.5-10.9-5.3,4-16.2,8.5-21.7,9.1-7.1.7-12.5-.9-17.6-5.3-10.7-9.1-12-23.7-3.1-33.8,10.1-11.5,27-11.3,44.7.4l3.2,2.2V-143l-3.7-1.9C1007-150.6,989-151.8,976.9-147.7Z"/>
    <path id="Path_56" data-name="Path 56" d="M1227.5-147.7c-16.6,6.3-29.8,21.9-32.7,38.6-5.3,31.1,25,60.6,56.9,55.3,9.8-1.6,18.6-6.3,26.3-14.2,21.5-21.8,19.4-53.2-5.1-72.2-9.1-7.1-15.2-9.1-28.4-9.5C1235-149.9,1232.7-149.7,1227.5-147.7Zm26.1,24.2c4.4,1.8,10.2,7.2,12.5,11.6,2.3,4.6,2.5,13.4.5,18.3-2.2,5.3-8.2,11.2-13.8,13.6-11.8,5.1-26.9-1-31.9-12.8C1212.5-112.2,1233.5-131.9,1253.6-123.5Z" fill="#bd0000"/>
    <path id="Path_57" data-name="Path 57" d="M1600-149.1c-10,3.1-21.5,12.9-26.9,23a51.3,51.3,0,0,0,7.5,59c15.3,16.6,39,18.5,56.1,4.5l4.3-3.5V-56h25v-92h-25v10.2l-5.1-3.8c-8.4-6.1-15.1-8.4-24.9-8.3A60.529,60.529,0,0,0,1600-149.1Zm28.3,24.8c4.8,1.9,12,9.9,13.5,15.1a25.156,25.156,0,0,1-7.8,26.5c-5.6,4.7-9.7,6-18,5.5-5.7-.3-7.7-.9-11.2-3.4-11.7-8.1-15-23.4-7.6-34.4C1604.3-125.4,1616.3-129,1628.3-124.3Z" fill="#bd0000"/>
    <path id="Path_58" data-name="Path 58" d="M1725.3-148.5c-1.8.7-5.2,3.2-7.7,5.6l-4.6,4.2V-148h-24v92h24V-81.3c0-13.8.5-27.2,1.1-29.7,1.2-5.4,4.9-10.4,9.2-12.6,3.2-1.7,11.5-2.2,15.4-1,2.1.7,3.2-1.9,8.9-21.6.4-1.3-.3-2.1-2.1-2.8C1741.7-150.4,1729-150.2,1725.3-148.5Z" fill="#bd0000"/>
    <path id="Path_59" data-name="Path 59" d="M1785.3-147.6c-7.5,2.8-10.3,4.6-16.5,10.4-29,27.1-14.4,76.7,24.6,83.3a55.287,55.287,0,0,0,38.6-8.2c6.5-4.4,14.8-13.6,13.4-14.8-.5-.4-4.6-3.6-9.2-7l-8.3-6.3-3.5,4a28.986,28.986,0,0,1-30,8.6c-6.7-2.1-14.3-8.7-16.2-14.2l-1.1-3.2H1850v-4.8c0-6.9-2.6-17.9-5.7-24.2-3.8-8-14.5-18.2-23-22.2-6.3-3-7.7-3.3-18.3-3.5C1792.9-150,1790.7-149.7,1785.3-147.6Zm25.7,22.7c4.8,2.2,7.7,4.4,9.1,7.1.9,1.7-.3,1.8-19.3,1.8h-20.2l3.9-4A23.891,23.891,0,0,1,1811-124.9Z" fill="#bd0000"/>
    <path id="Path_60" data-name="Path 60" d="M1878.5-148c-13.1,5.2-20.8,19.6-17.1,32.2,2.8,9.6,9.3,15.2,26.9,22.8a66.982,66.982,0,0,1,10.3,5.2c6.6,5.3-1.7,13.5-11.5,11.3-1.6-.3-5-2.2-7.5-4.1l-4.5-3.4-9.5,4.7-9.5,4.7,1.7,2.9c2.9,4.9,11.9,12.7,17.9,15.5,8.3,3.8,20.4,3.8,28.4,0,12.4-5.7,18.9-15.1,18.9-27.2,0-8.6-2.1-13.5-8-19.2-4-4-8.1-6.4-23.3-13.4-7.3-3.4-10-6.7-7.8-9.3,3-3.7,11.9-2.6,18.9,2.3l4.4,3.1,4.1-3.5c2.3-1.9,6.2-5.2,8.6-7.4l4.5-3.9-5.8-4.5c-10.1-7.9-15.7-10.2-26.1-10.5C1885.4-149.9,1882.4-149.6,1878.5-148Z" fill="#bd0000"/>
    <path id="Path_61" data-name="Path 61" d="M906-102v46h25l-.2-45.8-.3-45.7-12.2-.3-12.3-.3Z"/>
    <path id="Path_62" data-name="Path 62" d="M232.3-132.5c-19.3,5.2-35.4,22-39.3,41.2-2.7,12.7.4,29.3,7.4,39.8,9.9,14.9,24.5,23.3,42,24.3,16.9.9,28.7-3.7,40.6-15.7,4.7-4.7,8.6-9.7,10.3-13.3,10.4-21.7,6.5-45.2-10.2-61.9C269.6-131.6,249.8-137.2,232.3-132.5Z" fill="#bd0000"/>
  </g>
</svg>
